<?xml version="1.0" encoding="UTF-8"?>
<svg width="530px" height="339px" viewBox="0 0 530 339" version="1.1" xmlns="http://www.w3.org/2000/svg" xmlns:xlink="http://www.w3.org/1999/xlink">
    <title>26537799-F530-4246-8FB9-775DE9CEB036</title>
    <g id="About" stroke="none" stroke-width="1" fill="none" fill-rule="evenodd">
        <g id="About-OurBrand" transform="translate(-740.000000, -331.000000)">
            <g id="Header" transform="translate(170.000000, 147.000000)">
                <g id="Group-101" transform="translate(570.000000, 184.000000)">
                    <rect id="Rectangle" x="0" y="1" width="530" height="338"></rect>
                    <polygon id="Fill-1" fill="#00AECB" points="87 339 191 339 191 316 87 316"></polygon>
                    <polygon id="Fill-2" fill="#00C4D9" points="55 339 159 339 159 316 55 316"></polygon>
                    <polygon id="Fill-3" fill="#162B48" points="233 339 310 339 310 233 233 233"></polygon>
                    <polygon id="Fill-4" fill="#464E7E" points="209 339 286 339 286 233 209 233"></polygon>
                    <polygon id="Fill-5" fill="#091422" points="287 233 310 250 310 233"></polygon>
                    <g id="Group-100" transform="translate(84.000000, 0.000000)">
                        <path d="M264.821556,82.8651896 C263.641991,82.6873104 260.086579,85.9500491 260.086579,85.9500491 C252.494633,86.8208278 241.395183,88.8218177 237.400237,89.5851403 C234.566916,90.1266704 226.950302,87.5489388 219.509012,84.5891412 C210.659624,81.0673747 202.059971,77.0050899 202.059971,77.0050899 C197.149466,76.7567874 191.573137,85.6497387 201.531349,91.303628 C203.051369,92.1669192 208.763473,93.6399376 215.340577,94.985061 L215.342004,94.9842515 C224.41544,96.8401454 235.133866,98.4509746 238.782648,97.8849584 C243.021009,97.2268658 255.018078,92.8703416 262.154182,89.5343466 L262.154182,89.534549 C262.154182,89.534549 262.161113,89.5311088 262.17253,89.5256449 C262.19944,89.5130982 262.225535,89.5007539 262.252037,89.4884096 C262.680154,89.2896867 264.427077,88.51746 265.592983,88.5858596 C266.929932,88.6645797 269.907589,86.2357892 269.998513,85.5876125 C270.089233,84.9394359 266.001937,83.0428665 264.821556,82.8651896" id="Fill-6" fill="#FED3BB"></path>
                        <path d="M256,195.147665 L251.81664,196 C251.81664,196 232.671898,174.435946 229.717858,165.361964 C228.136984,160.512839 218.030241,158.417286 207.467681,155.679873 C198.274206,153.29714 188.735501,150.425955 184.180591,144.824312 C174.389289,132.788942 190.329638,118 190.329638,118 C190.329638,118 207.278335,128.098134 221.899589,138.530493 C232.119572,145.82126 241.202867,153.27464 242.571544,157.558405 C245.895298,167.975014 252.94435,187.775898 256,195.147665" id="Fill-8" fill="#464E7E"></path>
                        <path d="M250.863957,201.974884 L253.156603,201.974884 C253.924529,201.844794 254.491876,201.60458 255.279482,201.493381 C256.475602,201.324007 257.026052,201.853596 257.135585,201.974884 C257.150495,201.990984 257.157055,202 257.157055,202 L266.89598,202 C267.141088,201.622182 266.90592,200.746977 266.675522,200.102755 C266.520665,199.665045 266.182324,199.333381 265.763871,199.203077 C264.731156,198.88 262.695148,198.592343 260.830298,196.769374 C259.781482,195.745617 255.76453,193.005367 255.76453,193.005367 L255.743458,193 C255.655195,193.001932 255.235152,193.141252 253.40847,194.807084 C252.463819,195.666619 250.854216,193.593131 250.854216,193.593131 C250.854216,193.593131 250.552055,193.86297 250.326428,194.366154 C250.144933,194.763077 250.012737,195.308336 250.117102,195.980465 C250.262616,196.928229 249.793671,198.689374 249.41915,199.880572 C249.192529,200.60229 249.001095,201.114061 249.001095,201.114061 C249.001095,201.114061 248.891561,201.708694 250.863957,201.974884" id="Fill-10" fill="#162B48"></path>
                        <path d="M222,139.160053 L207.532701,156 C198.31668,153.660058 188.754584,150.840881 184.188503,145.340311 C174.372986,133.522099 190.352425,119 190.352425,119 C190.352425,119 207.342891,128.915929 222,139.160053" id="Fill-12" fill="#162B48"></path>
                        <path d="M209,129.481989 C209,129.481989 207.848866,133.141183 205.975321,138.646966 C203.606039,145.608002 200.076743,155.519837 196.248712,164.71188 C195.407817,166.731651 194.55138,168.717844 193.689896,170.629147 C190.506767,177.70272 187.24734,183.766306 184.378689,186.847754 C179.223311,192.387116 166.69022,228 166.69022,228 L163.566838,227.128599 C163.566838,227.128599 159.213197,196.718685 174.637143,179.414387 C174.80185,179.22981 174.931234,179.016335 174.949199,178.768467 C174.951217,178.766636 174.951217,178.764194 174.951217,178.761955 C175.156496,176.200255 175.890614,164.729992 177.48783,153.106694 C177.880423,150.254594 178.324284,147.396186 178.82426,144.65642 C178.855142,144.481204 178.888851,144.307819 178.920137,144.135045 C181.266812,131.467978 183.513168,125.833784 186.413308,123 L207.737446,129.119753 L209,129.481989 Z" id="Fill-14" fill="#464E7E"></path>
                        <path d="M162.864294,232.975312 L165.156682,232.975312 C165.924787,232.844576 166.49192,232.604356 167.279308,232.493584 C168.475595,232.324206 169.026229,232.853592 169.13576,232.975312 C169.15047,232.991198 169.156831,233 169.156831,233 L178.895901,233 C179.141201,232.622173 178.90584,231.746947 178.675249,231.102924 C178.520197,230.665204 178.182263,230.333532 177.763423,230.202796 C176.730934,229.879926 174.69478,229.592262 172.830178,227.769464 C171.78119,226.745897 167.764542,224.005367 167.764542,224.005367 L167.74347,224 C167.65521,224.001503 167.235376,224.141256 165.408344,225.806698 C164.463917,226.666253 162.854355,224.592715 162.854355,224.592715 C162.854355,224.592715 162.552401,224.86299 162.326382,225.366186 C162.145289,225.76269 162.012899,226.308177 162.11746,226.980536 C162.26297,227.928108 161.793838,229.689295 161.419724,230.880522 C161.192712,231.602256 161.001083,232.11404 161.001083,232.11404 C161.001083,232.11404 160.89195,232.708902 162.864294,232.975312" id="Fill-16" fill="#162B48"></path>
                        <path d="M167.241519,88.4103356 C167.241519,88.4103356 163.659329,97.2675985 159.528947,105.889312 C156.054571,113.137877 152.194536,120.218894 149.746828,121.7303 C146.295757,123.861303 136.787834,129.871699 130.620736,134.355121 C130.620736,134.355121 125.807598,134.318457 125.059991,135.249593 C124.312384,136.180934 122.586747,140.365106 123.090759,140.788481 C123.594568,141.212059 127.420759,141.015632 128.350353,140.052543 C129.16119,139.212554 130.966471,138.608729 131.414751,138.468014 C131.442718,138.459411 131.470077,138.451218 131.498247,138.442206 C131.510001,138.438929 131.517499,138.436676 131.517499,138.436676 L131.517499,138.436471 C139.012011,136.106378 150.767618,131.251402 154.3263,128.877067 C157.39009,126.832705 164.182593,118.376695 169.600666,110.850387 L169.602085,110.849977 C173.529605,105.394454 176.735256,100.427849 177.270477,98.7538112 C180.777887,87.7868472 170.683065,84.903111 167.241519,88.4103356" id="Fill-18" fill="#FED3BB"></path>
                        <path d="M186.824212,54.2915599 C186.391143,53.6683364 185.954156,53.1172822 185.5182,52.6235147 C186.058092,52.6349313 186.642735,52.5823334 187.127153,52.3845818 C188.406768,51.8616612 188.989968,47.8456722 188.797561,46.6548812 C188.605774,45.4640902 186.828542,42.0191344 184.637215,41.6756174 C182.445062,41.3323043 180.179907,43.7387582 180.179907,43.7387582 C180.584929,42.0016018 184.293441,41 184.293441,41 C176.654727,42.3922123 177.044283,47.4287628 177.09687,47.8937849 C170.10446,45.4312675 166,58.4484215 166,58.4484215 L184.111758,69 C184.111758,69 184.159189,66.1246505 185.887546,66.3101701 C188.582471,66.5990506 190.825354,60.0571412 186.824212,54.2915599" id="Fill-20" fill="#162B48"></path>
                        <path d="M186.987144,81.3164547 C182.901456,83.2523941 177.479485,80.464144 177.50868,80.4345924 C177.859021,80.0824181 177.735753,79.0279333 177.414607,77.6493993 C177.093867,76.211762 176.334795,74.2458633 174.934242,71.8992577 C174.642292,71.4003441 174.350544,70.9018382 174,70.3735768 L174.467324,70.1978973 L182.404937,67 C182.404937,67 183.689317,69.3174616 185.03148,71.429692 C186.169682,73.1899519 187.366072,74.7741247 187.891583,74.7156328 C187.920575,74.6864887 193.173661,78.3239924 186.987144,81.3164547" id="Fill-22" fill="#FED3BB"></path>
                        <path d="M182,68 C181.808516,70.8866789 180.906185,76.0947754 177.324215,78 C177.023691,76.5415676 176.312464,74.5472326 175,72.1666839 L182,68 Z" id="Fill-24" fill="#EEC6AE"></path>
                        <path d="M174.839825,74.9449905 C174.839825,74.9449905 185.213793,70.8756467 182.568099,64.485651 C179.922406,58.0956552 179.47915,53.2668032 172.743825,55.594544 C166.008704,57.9222848 165.739657,60.885177 166.101303,63.2317535 C166.463153,65.5785327 172.073244,75.8387797 174.839825,74.9449905" id="Fill-26" fill="#FED3BB"></path>
                        <path d="M178.865968,63.4965862 C183.614017,62.8391044 185,60.9561177 185,60.9561177 C185,60.9561177 180.627195,59.7254669 178.057378,55.5238772 C178.057378,55.5238772 172.720437,53.7582556 168.765848,56.7097986 C168.52557,57.0169665 168.352474,57.3785617 168.265522,57.8040842 C167.359287,57.5127497 165.995698,57.5883542 165.209501,60.101708 C164.027684,63.8773794 168.231427,68 168.231427,68 C169.250437,67.7173739 168.101101,64.3525792 167.940311,62.5566762 C167.822492,61.2349834 168.548771,59.5433829 168.941163,58.7412234 C169.444313,59.3814864 174.453823,65.5575007 180.569093,65.8039079 C180.569093,65.8039079 177.338361,64.7046743 174.39794,62.5529157 C175.859778,63.2578977 177.415629,63.6976703 178.865968,63.4965862" id="Fill-28" fill="#162B48"></path>
                        <path d="M206.91043,94.9723643 C206.822769,94.6614278 206.728615,94.3386422 206.629794,94.0076848 C208.165478,91.0517451 208.920333,88.3877425 209.240335,86.1327378 C209.941619,81.3683815 208.743997,78.4277638 208.743997,78.4277638 C208.743997,78.4277638 201.569424,74.5972386 198.40167,74.1095872 C198.388075,74.1044798 198.374682,74.0993724 198.362304,74.0977381 C198.324967,74.0924264 198.281949,74.0887491 198.235278,74.085889 C195.037492,73.6417523 188.114131,75.0646648 188.114131,75.0646648 C188.114131,75.0646648 189.449332,78.6443162 185.681753,81.0302738 C181.913971,83.4162314 177.890106,80.4192284 177.890106,80.4192284 C177.768761,80.5013549 177.639502,80.5920617 177.506794,80.6866501 C177.506794,80.6866501 177.506591,80.6860372 177.506185,80.6860372 C177.506185,80.6860372 167.592421,87.2714763 166.702626,88.7763109 C165.812424,90.2817584 162,97.7327941 162,97.7327941 C162,97.7327941 163.208783,103.988297 176.601171,104.511292 C177.701595,107.199605 178.544922,109.821932 178.819065,112.009111 C179.882761,120.500415 178.648005,127.198829 179.887631,132.155018 C181.127257,137.111615 203.472592,134.285199 207.518778,133.331755 C211.564761,132.377903 210.655079,128.027652 210.966355,123.801613 C211.357987,118.491177 208.227976,99.6568414 206.91043,94.9723643" id="Fill-30" fill="#0091DA"></path>
                        <path d="M210,85.9708847 C209.665267,88.2690058 208.874003,90.9856082 207.260814,94 C206.895632,92.4181494 205.404453,86.6274315 203,84 C203,84 207.047668,84.3589648 210,85.9708847" id="Fill-32" fill="#0076CF"></path>
                        <path d="M118.044106,141.11188 C118.044106,141.11188 122.27728,136.058728 123.187999,135.461358 C124.099131,134.863988 128.097507,133.816812 128.326115,134.027589 C128.554517,134.238772 128.564833,134.543859 128.069653,134.974966 C127.574266,135.405869 125.683502,136.492883 125.953169,136.615447 C126.223249,136.73801 131.927521,133.940188 132.749933,134.881265 C133.572345,135.821934 132.284257,139.70616 130.086069,141.568191 C127.88788,143.430221 121.326533,144.224343 120.913677,144.484307 C117.414401,146.688824 118.044106,141.11188 118.044106,141.11188" id="Fill-34" fill="#EEC6AE"></path>
                        <path d="M45,129.201698 C45,129.201698 50.8168099,136.216979 58.2243464,133.282543 C58.2243464,133.282543 59.8180335,129.36441 59.8401379,126.476119 C59.8427036,126.120801 59.8472429,125.776316 59.8525716,125.448685 C59.8920437,122.196248 60,120.371504 60,120.371504 C60,120.371504 59.997829,120.370702 59.9925003,120.3701 C59.6556057,120.22725 48.6687368,115.642018 48.6782101,116.022415 C48.8664921,124.818702 45,129.201698 45,129.201698" id="Fill-36" fill="#EEC6AE"></path>
                        <path d="M50.0076808,118.08894 C51.1472916,120.243864 55.0578042,124.459934 60.8414141,126 C60.8838735,122.489099 61,120.519347 61,120.519347 C61,120.519347 60.997877,120.518481 60.9919327,120.517615 C60.6647829,120.428169 49.6686423,117.453509 50.0076808,118.08894" id="Fill-38" fill="#E7BCA2"></path>
                        <path d="M63.0609332,120.436321 C63.0609332,120.436321 50.5952477,123.494287 48.889788,115.365196 C47.1841292,107.236105 44.4265214,102.155839 52.313451,99.8599234 C60.2003805,97.5640078 62.4026437,100.311586 63.6043307,102.880285 C64.8064159,105.449401 66.2597901,119.431612 63.0609332,120.436321" id="Fill-40" fill="#EEC6AE"></path>
                        <path d="M48.8139555,116.939544 C48.6408664,117.048569 45.9137502,117.873325 40.7490121,107.744045 C39.9386309,106.153927 39.386365,102.714185 41.2761749,99.6748629 C43.1659849,96.6355407 49.8666617,94.2457791 55.4340598,93.2057645 C61.0012556,92.1659492 62.3377875,95.2499175 63.6490139,98.3498308 C65.0252247,101.603813 69,104.282578 69,104.282578 C64.1992553,106.923075 58.4168621,103.146495 56.4134814,103.767753 C54.4101007,104.388613 53.7025607,107.496897 53.5523477,108.493661 C53.4019322,109.489627 53.1709442,110.317374 50.6521424,109.427641 C48.1331381,108.537908 49.5131953,112.942524 49.9162603,113.784421 C49.9162603,113.784421 50.2587947,116.028087 48.8139555,116.939544" id="Fill-42" fill="#162B48"></path>
                        <path d="M15.7622,316 L8.24002056,316 C6.66351588,316 4.91100621,314.385463 4.47248194,311.429315 C4.03395767,308.471165 0.79284661,306.859031 0.0908109218,304.439127 C-0.610827912,302.019223 2.98368212,298.612335 2.98368212,298.612335 L3.58432147,297.822988 L4.20936738,297 L10.1679399,298.43312 C10.1679399,298.43312 10.3147761,299.884261 10.4066479,301.732078 C10.4705415,303.06628 10.5052663,304.609331 10.4310545,305.961754 C10.2556448,309.188827 11.3146511,312.662795 14.1174364,313.290949 C16.9224043,313.918702 15.7622,316 15.7622,316" id="Fill-44" fill="#162B48"></path>
                        <path d="M70,316 L49.4119634,316 C49.2148585,315.96231 49.0652883,315.919933 48.9747266,315.875213 C47.6001146,315.19992 48.03059,310.035431 48.1957319,308.439959 C48.2276949,308.144494 48.250028,307.971472 48.250028,307.971472 C48.250028,307.971472 55.4896375,302.289284 56.4860212,306.640023 C56.5175744,306.775746 56.5538401,306.909125 56.5923595,307.040161 L56.5923595,307.042309 C57.8493642,311.113401 63.4670586,312.962157 66.7121182,313.477903 C69.1919109,313.873354 69.8348581,315.290923 70,316" id="Fill-46" fill="#162B48"></path>
                        <path d="M65,197.881948 C65,197.881948 63.9263276,211.465003 62.6643723,227.792668 C60.9492177,249.972915 58.88631,277.217136 58.6826204,282.378494 C58.3298651,291.34047 56.9142423,305.676629 56.9142423,305.676629 C56.9142423,305.676629 53.5577654,309.082638 46.8400096,307.646831 C46.8400096,307.646831 40.8535756,287.181965 39.1436232,265.529216 C39.1172116,265.174169 39.0908,264.816689 39.0641882,264.459005 C37.4738885,242.416516 35,196 35,196 L65,197.881948 Z" id="Fill-48" fill="#464E7E"></path>
                        <path d="M65,197.894691 C65,197.894691 63.9263276,211.569717 62.6643723,228.007937 L39.1436232,266 C39.1172116,265.64255 39.0908,265.282648 39.0641882,264.922543 C37.4738885,242.730803 35,196 35,196 L65,197.894691 Z" id="Fill-50" fill="#162B48"></path>
                        <path d="M61,199.890736 C61,199.890736 41.2148089,249.194224 28.2056428,272.363941 C15.1964767,295.533659 11.1311891,302 11.1311891,302 C11.1311891,302 3.67788887,299.03615 3,297.015584 C3,297.015584 7.9749352,252.284957 16.687055,241.380771 C21.6098291,235.219639 27.3925444,216.729535 27.6635772,210.263397 C27.9348146,203.79726 29.4253928,191 29.4253928,191 L61,199.890736 Z" id="Fill-52" fill="#464E7E"></path>
                        <path d="M16,191.421851 C16,191.421851 15.471645,197.551955 15.0842409,198.493506 C14.6968369,199.43445 12.1170972,202.352429 11.818104,202.310726 C11.5193217,202.268821 11.340601,202.038849 11.4918912,201.44509 C11.6431813,200.851332 12.5327758,199.015601 12.251085,199.063174 C11.9689721,199.11095 9.01596564,204.279259 7.83982716,203.988149 C6.66326667,203.69704 5.51329274,200.022135 6.2129833,197.426644 C6.91330688,194.831153 11.6632267,190.755012 11.8446905,190.336972 C13.3833345,186.790415 16,191.421851 16,191.421851" id="Fill-54" fill="#EEC6AE"></path>
                        <path d="M13.6805002,192.445811 C15.8354477,193.142314 16.1808512,192.984699 16.1808512,192.984699 C16.1808512,192.984699 26.6687586,173.76543 27.7315386,172.005939 C28.7937148,170.246854 50,150.45385 50,150.45385 L44.5504346,130 C44.5504346,130 20.4305622,161.436232 17.8261473,165.947295 C13.5220896,173.401376 11,190.71367 11,190.71367 C11,190.71367 11.9879023,191.898819 13.6805002,192.445811" id="Fill-56" fill="#00AECB"></path>
                        <path d="M69.9748143,158.974233 C69.8986013,163.164335 69.6547602,167.874385 69.3251794,172.658194 C69.30491,172.941913 69.2848432,173.225631 69.2647765,173.509148 C69.0541772,176.472834 68.8255381,179.443391 68.5634545,182.339987 C68.4582562,183.501535 68.346369,184.649342 68.2298198,185.776941 L68.2117801,185.929107 C68.2026588,186.351249 68.1511745,186.808755 68.1043521,187.226856 C67.0335186,198.076057 65.9112008,206.647832 65.7030338,206.779587 C65.4541253,206.944887 65.1740019,207.027538 64.8673256,206.99177 C62.0133911,206.634495 53.4984099,207.280136 46.5271479,205.767981 C40.6443537,204.530451 35.5794308,202.185732 30.2118853,199.022998 C29.4994152,198.603281 27.8756319,197.491242 28.0075858,196.660294 C28.1375128,195.746898 28.3770973,194.426718 28.6819494,192.767652 C29.7394051,186.996486 31.5650719,177.06937 32.1877485,165.451461 C32.308757,163.286997 32.485709,161.150014 32.7141454,159.048194 C33.3124987,153.574286 34.2710396,148.375003 35.5571344,143.75609 C37.9473046,135.175828 41.4595899,128.605037 45.8663647,126.034798 C46.4420163,125.713291 49.5401973,127.678507 52.3852133,129.498629 C55.0129411,131.178105 57.7795144,131.642684 60.4696719,131.408071 L62.8377484,134.018928 C65.7052634,137.342314 68.7584464,141.766625 69.5917223,148.055517 C69.6547602,148.520095 69.7084741,149.013774 69.7528642,149.538572 C69.9839356,152.100122 70.0396765,155.343081 69.9748143,158.974233" id="Fill-58" fill="#00C4D9"></path>
                        <path d="M69.9742323,158.358115 C69.8962582,162.579054 69.6467825,167.323768 69.3095859,172.142784 C69.2888481,172.42859 69.2683177,172.714397 69.2477873,173 C52.5694132,162.752288 50,144 50,144 C58.2051172,144.35339 64.7234219,146.205026 69.7471535,148.853011 C69.9835644,151.433413 70.0405933,154.700239 69.9742323,158.358115" id="Fill-60" fill="#00AECB"></path>
                        <path d="M120.545245,141.207616 C119.699078,138.919405 118.383296,139.068144 118.383296,139.068144 C118.383296,139.068144 93.9783533,145.148072 91.7882394,145.409029 C89.5981255,145.670393 65.507485,136.00543 65.507485,136.00543 C65.507485,136.00543 56.0251552,131.750969 51.5834957,135.635521 C47.7239073,139.011219 47.5481838,143.287307 48.4514961,146.878258 C49.5274704,151.157814 53.1496996,154.319279 57.5280905,154.876897 C67.3565608,156.128221 86.9657437,158.483762 91.0757534,157.912067 C100.223576,156.638707 120.949756,144.677576 120.949756,144.677576 C120.949756,144.677576 121.210177,143.004928 120.545245,141.207616" id="Fill-62" fill="#00C4D9"></path>
                        <path d="M360.203823,186.443267 C360.203823,186.443267 363.572142,189.490495 362.914983,191.655693 C362.257622,193.820693 359.217578,195.264158 358.806778,197.910446 C358.39618,200.556733 356.752776,202 355.27422,202 L348.223297,202 C348.223297,202 347.134858,200.137783 349.764102,199.576546 C352.393143,199.01511 353.38466,195.905743 353.220421,193.01901 C353.055776,190.132277 353.466577,186.283168 353.466577,186.283168 L359.053339,185 L360.203823,186.443267 Z" id="Fill-64" fill="#162B48"></path>
                        <path d="M318.116795,201.646193 C317.775464,201.810849 316.575435,201.92399 314.929143,202 L299,202 C299.053479,201.5453 299.424386,199.924593 302.028836,199.521214 C304.971783,199.062237 310.069473,197.420924 311.205692,193.80879 C311.243978,193.693511 311.276187,193.573955 311.304142,193.454788 C312.206594,189.595573 318.772516,194.63557 318.772516,194.63557 C318.772516,194.63557 318.791761,194.789729 318.819918,195.05314 C318.973872,196.472449 319.361794,201.049776 318.116795,201.646193" id="Fill-66" fill="#162B48"></path>
                        <path d="M303,93.7302426 C303,93.7302426 304.002275,106.222033 305.18001,121.237806 C306.780923,141.635471 308.70609,166.690841 308.896815,171.437009 C309.22575,179.679456 310.546784,192.863099 310.546784,192.863099 C310.546784,192.863099 313.679403,195.995554 319.949731,194.675298 C319.949731,194.675298 325.536541,175.854944 327.132569,155.941698 C327.157402,155.615498 327.182031,155.286858 327.20666,154.958014 C328.691551,134.686233 331,92 331,92 L303,93.7302426 Z" id="Fill-68" fill="#464E7E"></path>
                        <path d="M303,93.7318203 C303,93.7318203 304.002275,106.235001 305.18001,121.264465 L327.132569,156 C327.157402,155.673503 327.182031,155.344563 327.20666,155.015419 C328.691551,134.725154 331,92 331,92 L303,93.7318203 Z" id="Fill-70" fill="#162B48"></path>
                        <path d="M307,95.1702727 C307,95.1702727 325.079165,140.475908 336.967187,161.766844 C348.855005,183.058187 352.569935,189 352.569935,189 C352.569935,189 359.380845,186.276644 360,184.419865 C360,184.419865 355.454029,143.315962 347.492619,133.296447 C342.994322,127.634464 337.710214,110.643425 337.462674,104.701409 C337.21493,98.7597997 335.852341,87 335.852341,87 L307,95.1702727 Z" id="Fill-72" fill="#464E7E"></path>
                        <path d="M251.714227,71.0817682 C251.714227,71.0817682 246.818402,69.9448728 245.99399,70.0020894 C245.169781,70.0599257 242.287288,71.2841951 242.24925,71.5213237 C242.210806,71.7582458 242.347293,71.9515841 242.845032,71.9856662 C243.343382,72.0199548 244.982849,71.8057541 244.878908,72.0075613 C244.774763,72.209162 240.052648,73.1516863 240.000779,74.1171385 C239.948504,75.081971 242.535852,76.875721 244.721674,76.9959378 C246.907495,77.115948 251.205301,74.5372775 251.573876,74.5046414 C254.698628,74.2274405 251.714227,71.0817682 251.714227,71.0817682" id="Fill-74" fill="#FED3BB"></path>
                        <path d="M249.554305,72.2204672 C248.852714,69.9901883 249.016622,69.6352421 249.016622,69.6352421 C249.016622,69.6352421 268.858628,58.9345276 270.675443,57.8494065 C272.492462,56.7642853 292.997217,35 292.997217,35 L314,40.7657457 C314,40.7657457 281.498245,65.4596553 276.840698,68.1187092 C269.143332,72.5129429 251.31784,75 251.31784,75 C251.31784,75 250.105003,73.9718731 249.554305,72.2204672" id="Fill-76" fill="#E74E1C"></path>
                        <path d="M299,24.6013195 C299,24.6013195 291.668989,37.3374373 284.503198,39 C284.503198,39 284.801646,34.7224397 286.546373,31.7951619 C285.831839,30.9630808 285.204571,30.1987738 284.661331,29.5146361 C282.857481,27.2325109 282,25.8354464 282,25.8354464 L284.431927,19.3797211 L286.081895,15 C286.874787,16.4212552 287.749276,17.6327908 288.660616,18.6683938 C293.35682,23.9995502 299,24.6013195 299,24.6013195" id="Fill-78" fill="#FED3BB"></path>
                        <path d="M288.936486,18.0018205 C288.936486,18.0018205 289.847195,24.4735797 284.771558,29 C282.893207,26.6859062 282,25.2692712 282,25.2692712 L284.532652,18.723315 C287.248121,17.9278263 288.936486,18.0018205 288.936486,18.0018205" id="Fill-80" fill="#EEC6AE"></path>
                        <path d="M280.317938,25.9435913 C280.317938,25.9435913 291.32934,21.7104092 288.550385,14.9889028 C285.77143,8.26739641 285.320993,3.19420163 278.173423,5.61287609 C271.025649,8.03155056 270.728478,11.1419057 271.102791,13.6077493 C271.476697,16.0739944 277.382053,26.87172 280.317938,25.9435913" id="Fill-82" fill="#FED3BB"></path>
                        <path d="M337.106756,90.2910588 C332.667737,96.6716807 299.486943,105.197208 299.880248,100.780496 C300.03094,99.0903177 300.23349,96.1099826 299.875977,92.0690915 C299.792801,91.1224208 299.675664,90.120231 299.522938,89.0592683 C298.680199,83.2562071 296.677475,75.7938792 292.211409,67.1564999 C291.876672,66.5089812 291.528514,65.8573952 291.166527,65.1966576 C289.328121,61.8522966 287.761408,58.3165678 286.565834,54.8597451 C284.266402,48.2161704 283.340488,41.8597492 284.500067,37.7039561 C284.504948,37.6836194 284.511455,37.6657232 284.51837,37.6455899 C291.45449,34.4382979 294.141939,22 294.141939,22 C294.141939,22 317.806133,26.2479181 331.060758,57.7906622 C331.060758,57.7906622 340.968019,84.7371215 337.106756,90.2910588" id="Fill-84" fill="#F47537"></path>
                        <path d="M299.716092,92 C299.632355,91.0610684 299.514632,90.0666563 299.360875,89.0141411 C298.512244,83.257284 296.496004,75.8543713 292,67.285965 C292.77165,62.6748304 293.837506,58.8398174 295.007368,57.1138699 C299.759087,50.0968997 302.526299,49 302.526299,49 C302.526299,49 309.651728,78.6106419 299.716092,92" id="Fill-86" fill="#E74E1C"></path>
                        <path d="M262.525074,85 C262.525074,85 256.037535,85.3445306 255.031793,85.7110785 C254.026253,86.0776265 250.866934,88.6271529 250.902004,88.934784 C250.937275,89.2422113 251.174501,89.4326206 251.805962,89.2966431 C252.43702,89.1606656 254.402549,88.3083092 254.343495,88.5955539 C254.28444,88.8827987 248.738349,91.7419949 249.009637,92.9564143 C249.28153,94.1712414 253.125721,95.4674103 255.887379,94.8335964 C258.649239,94.1997824 263.096875,89.4644234 263.544118,89.2919542 C267.334898,87.8296359 262.525074,85 262.525074,85" id="Fill-88" fill="#EEC6AE"></path>
                        <path d="M261.697989,87.484928 C260.382138,85.3577953 261.330718,84.3875386 261.330718,84.3875386 C261.330718,84.3875386 281.619996,68.4908051 283.210484,66.8847362 C284.801175,65.2792799 292.167613,39.7073391 292.167613,39.7073391 C292.167613,39.7073391 294.703211,29.3583425 300.64076,28.2173925 C305.800307,27.225697 309.366509,29.7799713 311.699905,32.7746589 C314.480351,36.3434967 314.753559,41.2656302 312.445465,45.1572744 C307.265106,53.8924434 296.814816,71.2310861 293.763406,74.1935135 C286.971543,80.7862364 264.247462,90 264.247462,90 C264.247462,90 262.731653,89.1555173 261.697989,87.484928" id="Fill-90" fill="#F47537"></path>
                        <path d="M290.481657,2.63350039 C290.559823,2.47743648 290.785888,2.31095441 291.33881,2.13968 C291.33881,2.13968 290.820857,1.96340487 290.218361,2.0973823 C289.906108,1.3251889 289.146868,0.0102097887 287.721983,0 C287.721983,0 288.538818,0.215447377 288.840375,1.0438988 C286.888074,-0.209404849 283.270218,-0.57341507 274.237921,2.47410267 C262.334254,6.49030015 268.281459,13.4900479 270.08545,14.0513779 C271.889647,14.6124996 275.211294,11.0109445 278.198267,10.5194161 C281.185652,10.0276794 282.801633,14.2426552 283.940389,14.5922884 C285.079352,14.9419215 284.432013,13.9828265 285.624457,13.0220645 C286.816696,12.061511 287.501678,14.3214164 287.475965,15.9083093 C287.450047,17.4954105 289.775282,19 289.775282,19 L291.139075,16.4658888 C292.502662,13.9319859 292.131784,4.73275796 290.828673,3.07689693 C290.714098,2.93083444 290.599112,2.7822716 290.481657,2.63350039" id="Fill-92" fill="#162B48"></path>
                        <polygon id="Fill-94" fill="#009CB6" points="107 316 107 329 76 316"></polygon>
                        <polygon id="Fill-96" fill="#0076CF" points="270 339 374 339 374 202 270 202"></polygon>
                        <polygon id="Fill-98" fill="#0091DA" points="238 339 342 339 342 202 238 202"></polygon>
                        <polygon id="Fill-99" fill="#0063AD" points="374 202 374 222 342 202"></polygon>
                    </g>
                </g>
            </g>
        </g>
    </g>
</svg>